HIERARCHY
ROOT Hips
{
	OFFSET 0.000000 0.000000 0.000000 
	CHANNELS 6 Xposition Yposition Zposition Yrotation Xrotation Zrotation
	JOINT Spine
	{
		OFFSET 0.000000 0.072080 0.012321 
		CHANNELS 3 Xrotation Yrotation Zrotation
		JOINT Spine1
		{
			OFFSET 0.000000 0.126984 -0.001294 
			CHANNELS 3 Xrotation Yrotation Zrotation
			JOINT Spine2
			{
				OFFSET 0.000000 0.106559 -0.010096 
				CHANNELS 3 Xrotation Yrotation Zrotation
				JOINT Neck
				{
					OFFSET 0.000000 0.108417 -0.034017 
					CHANNELS 3 Xrotation Yrotation Zrotation
					JOINT Neck1
					{
						OFFSET 0.000000 0.033906 0.007241 
						CHANNELS 3 Xrotation Yrotation Zrotation
						JOINT Head
						{
							OFFSET 0.000000 0.031458 0.006707 
							CHANNELS 3 Xrotation Yrotation Zrotation
							End Site
							{
								OFFSET 0.000000 0.179920 0.000962 
							}
						}
					}
				}
				JOINT LeftShoulder
				{
					OFFSET 0.048002 0.079586 -0.029634 
					CHANNELS 3 Zrotation Xrotation Yrotation
					JOINT LeftArm
					{
						OFFSET 0.096243 -0.008695 -0.014012 
						CHANNELS 3 Zrotation Xrotation Yrotation
						JOINT LeftForeArm
						{
							OFFSET 0.216305 0.000000 0.000000 
							CHANNELS 3 Xrotation Zrotation Yrotation
							JOINT LeftHand
							{
								OFFSET 0.217764 0.000000 0.000000 
								CHANNELS 3 Zrotation Yrotation Xrotation
								JOINT LeftHandThumb1
								{
									OFFSET 0.018582 -0.007835 0.020476 
									CHANNELS 3 Zrotation Xrotation Yrotation
									JOINT LeftHandThumb2
									{
										OFFSET 0.026269 -0.007835 0.022186 
										CHANNELS 3 Zrotation Xrotation Yrotation
										JOINT LeftHandThumb3
										{
											OFFSET 0.035170 -0.010504 0.017018 
											CHANNELS 3 Zrotation Xrotation Yrotation
											End Site
											{
												OFFSET 0.020312 -0.007813 0.007813 
											}
										}
									}
								}
								JOINT LeftHandMiddle1
								{
									OFFSET 0.081749 0.004803 0.003358 
									CHANNELS 3 Zrotation Xrotation Yrotation
									JOINT LeftHandMiddle2
									{
										OFFSET 0.045251 0.000000 0.000000 
										CHANNELS 3 Zrotation Xrotation Yrotation
										JOINT LeftHandMiddle3
										{
											OFFSET 0.029009 0.000000 0.000000 
											CHANNELS 3 Zrotation Xrotation Yrotation
											End Site
											{
												OFFSET 0.017969 0.000000 0.000000 
											}
										}
									}
								}
								JOINT LeftHandIndex1
								{
									OFFSET 0.081207 0.004803 0.021137 
									CHANNELS 3 Zrotation Xrotation Yrotation
									JOINT LeftHandIndex2
									{
										OFFSET 0.043354 0.000000 0.000000 
										CHANNELS 3 Zrotation Xrotation Yrotation
										JOINT LeftHandIndex3
										{
											OFFSET 0.026493 0.000000 0.000000 
											CHANNELS 3 Zrotation Xrotation Yrotation
											End Site
											{
												OFFSET 0.019531 0.000000 0.000000 
											}
										}
									}
								}
								JOINT LeftHandRing1
								{
									OFFSET 0.080666 0.002509 -0.014652 
									CHANNELS 3 Zrotation Xrotation Yrotation
									JOINT LeftHandRing2
									{
										OFFSET 0.042541 0.000000 0.000000 
										CHANNELS 3 Zrotation Xrotation Yrotation
										JOINT LeftHandRing3
										{
											OFFSET 0.029009 0.000000 0.000000 
											CHANNELS 3 Zrotation Xrotation Yrotation
											End Site
											{
												OFFSET 0.015625 0.000000 0.000000 
											}
										}
									}
								}
								JOINT LeftHandPinky1
								{
									OFFSET 0.078227 -0.000612 -0.030993 
									CHANNELS 3 Zrotation Xrotation Yrotation
									JOINT LeftHandPinky2
									{
										OFFSET 0.028721 0.000000 0.000000 
										CHANNELS 3 Zrotation Xrotation Yrotation
										JOINT LeftHandPinky3
										{
											OFFSET 0.021963 0.000000 0.000000 
											CHANNELS 3 Zrotation Xrotation Yrotation
											End Site
											{
												OFFSET 0.022656 0.000000 0.000000 
											}
										}
									}
								}
							}
						}
					}
				}
				JOINT RightShoulder
				{
					OFFSET -0.047970 0.079586 -0.029634 
					CHANNELS 3 Zrotation Xrotation Yrotation
					JOINT RightArm
					{
						OFFSET -0.096274 -0.008695 -0.014012 
						CHANNELS 3 Zrotation Xrotation Yrotation
						JOINT RightForeArm
						{
							OFFSET -0.216305 0.000000 0.000000 
							CHANNELS 3 Xrotation Zrotation Yrotation
							JOINT RightHand
							{
								OFFSET -0.217764 0.000000 0.000000 
								CHANNELS 3 Zrotation Yrotation Xrotation
								JOINT RightHandThumb1
								{
									OFFSET -0.019670 -0.007318 0.019638 
									CHANNELS 3 Zrotation Xrotation Yrotation
									JOINT RightHandThumb2
									{
										OFFSET -0.025498 -0.008492 0.023179 
										CHANNELS 3 Zrotation Xrotation Yrotation
										JOINT RightHandThumb3
										{
											OFFSET -0.034504 -0.010705 0.016680 
											CHANNELS 3 Zrotation Xrotation Yrotation
											End Site
											{
												OFFSET -0.020312 -0.007813 0.007813 
											}
										}
									}
								}
								JOINT RightHandIndex1
								{
									OFFSET -0.081770 0.003825 0.021187 
									CHANNELS 3 Zrotation Xrotation Yrotation
									JOINT RightHandIndex2
									{
										OFFSET -0.042006 0.000000 0.000000 
										CHANNELS 3 Zrotation Xrotation Yrotation
										JOINT RightHandIndex3
										{
											OFFSET -0.026449 0.000000 0.000000 
											CHANNELS 3 Zrotation Xrotation Yrotation
											End Site
											{
												OFFSET -0.020312 0.000000 0.000000 
											}
										}
									}
								}
								JOINT RightHandMiddle1
								{
									OFFSET -0.084059 0.003825 0.003342 
									CHANNELS 3 Zrotation Xrotation Yrotation
									JOINT RightHandMiddle2
									{
										OFFSET -0.043881 0.000000 0.000000 
										CHANNELS 3 Zrotation Xrotation Yrotation
										JOINT RightHandMiddle3
										{
											OFFSET -0.029191 0.000000 0.000000 
											CHANNELS 3 Zrotation Xrotation Yrotation
											End Site
											{
												OFFSET -0.017969 0.000000 0.000000 
											}
										}
									}
								}
								JOINT RightHandRing1
								{
									OFFSET -0.081798 0.003030 -0.015127 
									CHANNELS 3 Zrotation Xrotation Yrotation
									JOINT RightHandRing2
									{
										OFFSET -0.042198 0.000000 0.000000 
										CHANNELS 3 Zrotation Xrotation Yrotation
										JOINT RightHandRing3
										{
											OFFSET -0.026497 0.000000 0.000000 
											CHANNELS 3 Zrotation Xrotation Yrotation
											End Site
											{
												OFFSET -0.017188 0.000000 0.000000 
											}
										}
									}
								}
								JOINT RightHandPinky1
								{
									OFFSET -0.077902 -0.000930 -0.030891 
									CHANNELS 3 Zrotation Xrotation Yrotation
									JOINT RightHandPinky2
									{
										OFFSET -0.028538 0.000000 0.000000 
										CHANNELS 3 Zrotation Xrotation Yrotation
										JOINT RightHandPinky3
										{
											OFFSET -0.021734 0.000000 0.000000 
											CHANNELS 3 Zrotation Xrotation Yrotation
											End Site
											{
												OFFSET -0.022656 0.000000 0.000000 
											}
										}
									}
								}
							}
						}
					}
				}
			}
		}
	}
	JOINT LeftUpLeg
	{
		OFFSET 0.075264 -0.025573 0.000000 
		CHANNELS 3 Xrotation Yrotation Zrotation
		JOINT LeftLeg
		{
			OFFSET 0.000000 -0.326016 -0.013516 
			CHANNELS 3 Xrotation Yrotation Zrotation
			JOINT LeftFoot
			{
				OFFSET 0.000098 -0.306172 -0.006623 
				CHANNELS 3 Xrotation Yrotation Zrotation
				JOINT LeftToeBase
				{
					OFFSET -0.001432 -0.095259 0.064705 
					CHANNELS 3 Xrotation Yrotation Zrotation
					End Site
					{
						OFFSET 0.000000 0.000000 0.079438 
					}
				}
			}
		}
	}
	JOINT RightUpLeg
	{
		OFFSET -0.075264 -0.025573 0.000000 
		CHANNELS 3 Xrotation Yrotation Zrotation
		JOINT RightLeg
		{
			OFFSET 0.000000 -0.326016 -0.013516 
			CHANNELS 3 Xrotation Yrotation Zrotation
			JOINT RightFoot
			{
				OFFSET 0.000098 -0.306172 -0.006623 
				CHANNELS 3 Xrotation Yrotation Zrotation
				JOINT RightToeBase
				{
					OFFSET -0.001432 -0.095259 0.064705 
					CHANNELS 3 Xrotation Yrotation Zrotation
					End Site
					{
						OFFSET 0.000025 0.000000 0.079438 
					}
				}
			}
		}
	}
}
MOTION
Frames: 4
Frame Time: 0.033333
0.021386 0.676871 1.028062 9.393600 10.949300 3.604600 0.114000 3.343500 1.898400 6.622900 -0.478700 -4.014100 3.536400 -0.361300 0.446800 0.756400 -1.207600 -0.653200 -0.000000 0.000000 -0.000000 -26.440800 -7.030100 -2.471400 -26.879400 5.061300 -15.875400 -40.792999 0.906300 -10.640500 0.000000 0.000000 -76.226700 2.771600 9.272900 8.904200 5.249800 18.090200 5.442800 2.013000 -9.200100 2.494600 5.376700 2.500900 -7.491300 -71.301903 -2.896300 2.297100 -60.993500 -0.715400 0.235100 -51.835201 -0.022500 0.111400 -63.155998 -2.754600 1.629400 -58.802200 -0.617300 0.341500 -45.674999 0.009700 -0.279800 -71.010101 -2.747200 -0.029800 -59.483398 0.276900 0.294600 -57.362701 0.595200 0.097500 -85.600197 -3.574400 0.572100 -57.986698 -0.202100 -0.435200 -50.720001 -0.337400 0.573200 14.842800 -4.440500 3.519100 38.723900 30.625401 -2.745400 0.000000 -0.000000 82.901802 -11.531600 0.563300 -1.613000 -0.106500 9.121500 -14.862200 0.440500 -4.290200 -8.003200 1.455200 -14.735200 16.051701 53.424702 -0.523600 -1.859400 57.832100 -1.173400 -1.370400 48.347698 -0.442800 0.390000 56.103802 -3.139700 -1.475400 62.913601 -1.381000 -1.275200 55.239300 -0.545000 -0.930100 72.172699 -3.764800 -2.215600 69.207901 -0.454600 -1.437900 53.177700 -0.000900 0.804200 72.208099 -5.982200 -4.810200 84.355904 -1.274000 -0.606400 51.202202 -0.943300 1.514700 -24.811300 0.073900 -10.300800 50.256599 -2.752900 1.554600 -36.145302 -2.137800 6.856500 -7.250300 0.000000 -0.000000 -43.334301 -6.713700 -13.441200 110.002899 -2.851400 -0.779300 -9.032500 -13.906300 -0.170600 -3.590200 -0.000000 0.000000 
0.020559 0.699193 1.121957 6.783800 11.398600 0.163500 -0.004600 2.861800 3.941200 6.520100 -1.998600 -1.421100 3.538900 -1.993200 2.927900 2.865400 -0.409300 -2.494100 -0.000000 0.000000 -0.000000 -28.368601 -2.156000 -3.215400 -26.771299 5.613900 -17.670601 -44.185398 -2.194000 -15.713500 0.000000 -0.000000 -75.705902 3.995600 9.172800 8.610400 5.241400 18.072399 5.368700 0.827900 -8.396400 3.173800 8.226300 1.879700 -6.732000 -72.583603 -2.884100 -0.416000 -60.718700 -0.713700 0.239300 -52.351799 -0.022000 0.109800 -66.552696 -1.843600 0.613300 -60.598598 -0.627600 0.319000 -47.475498 0.011900 -0.281900 -72.036400 -2.726400 -0.795900 -60.389801 0.281100 0.296200 -58.231800 0.602000 0.103200 -84.660500 -2.926400 -2.442600 -58.985298 -0.203000 -0.441000 -51.555500 -0.340300 0.566400 11.553300 -4.082200 5.965400 42.702099 29.840599 -12.958800 -0.000000 0.000000 93.366798 -4.441800 -5.615500 -2.555700 0.628400 9.420500 -17.452801 0.440500 -4.290200 -8.003200 1.455200 -14.735200 16.051701 50.474300 -0.385600 -1.968400 58.006599 -1.177600 -1.370200 48.522301 -0.445300 0.387700 52.497700 -2.961600 -1.546300 63.124298 -1.386100 -1.274000 55.449902 -0.548300 -0.931900 70.266998 -3.681300 -2.053800 69.144501 -0.453700 -1.437200 53.111198 -0.000400 0.805400 68.489304 -6.073100 -5.272100 85.370598 -1.293400 -0.602600 52.216702 -0.963500 1.509700 -14.768500 2.544800 -4.716800 41.026100 -3.535000 1.898700 -19.064600 -3.113500 6.606100 -22.326200 0.000000 -0.000000 -50.472198 -4.332700 -7.886600 96.900803 -2.688600 0.204900 -11.591100 -13.348200 5.752200 -11.116300 0.000000 -0.000000 
0.017445 0.723250 1.215895 3.725700 11.925300 -3.695700 0.422100 2.147600 5.821400 6.740000 -3.824400 1.243400 3.901400 -3.946500 5.457900 3.483700 0.157800 -2.091100 -0.000000 0.000000 -0.000000 -30.007799 5.307500 -4.988200 -23.652100 4.531000 -16.776600 -47.554199 -3.183900 -17.160400 -0.000000 0.000000 -80.950699 7.175300 2.127600 6.410000 5.218300 18.025700 5.194200 2.187500 -7.449200 3.464800 9.787800 1.567300 -6.701600 -71.769699 -2.822700 -4.565800 -61.893200 -0.720700 0.221400 -53.752300 -0.020500 0.105300 -69.279404 0.208100 -1.251100 -62.073898 -0.635600 0.300200 -48.958099 0.013800 -0.283500 -69.120697 -2.641100 -1.381800 -61.834301 0.287700 0.298800 -59.607498 0.612700 0.112500 -80.693398 -2.808700 -6.233500 -59.864899 -0.203700 -0.446100 -51.568199 -0.340400 0.566300 9.855300 -3.834000 8.649500 43.933498 28.480801 -20.178699 -0.000000 0.000000 101.391800 -1.455800 -3.836100 -1.646300 1.074900 10.700100 -18.197901 0.440500 -4.290200 -8.003200 1.455200 -14.735200 16.051701 49.987999 -0.121600 -1.717900 58.159599 -1.181200 -1.370000 48.675201 -0.447500 0.385800 51.749500 -2.921100 -1.357200 63.425598 -1.393400 -1.272200 55.749699 -0.553200 -0.934500 69.737099 -3.640600 -1.681900 69.656502 -0.461600 -1.442200 53.614101 -0.004600 0.796100 65.615997 -5.814300 -5.209600 86.719398 -1.319000 -0.597000 53.565201 -0.990600 1.503700 -11.809900 1.910200 0.986100 38.148300 1.775300 1.200500 5.025900 -6.015500 -4.941700 -29.843901 -0.267700 6.244400 -52.967602 -4.061300 -1.390000 76.974197 -0.755000 0.668200 -13.560100 -12.901100 2.052900 -1.374900 0.000000 -0.000000 
0.014366 0.736847 1.309804 0.375500 12.743700 -6.404700 0.901700 1.701900 6.646800 6.826700 -5.150600 2.990600 4.099800 -5.389900 7.100500 3.419200 0.840600 -1.060600 -0.000000 0.000000 -0.000000 -30.936600 11.558500 -5.528200 -20.960199 3.534900 -15.505200 -48.269402 -4.550200 -16.359900 0.000000 -0.000000 -89.599197 10.577000 -7.818100 5.011000 5.190400 17.970100 4.986000 1.583700 -6.622500 3.912700 8.851800 1.080500 -6.629300 -74.254303 -2.829200 -7.150800 -62.223999 -0.722600 0.216300 -54.505501 -0.019700 0.103000 -75.448601 1.769700 -2.892500 -62.027699 -0.635400 0.300800 -48.920799 0.013700 -0.283400 -70.378899 -2.620300 -2.269700 -62.364700 0.290100 0.299800 -60.031101 0.615900 0.115300 -81.372704 -2.782200 -7.550300 -59.656799 -0.203500 -0.444900 -50.956001 -0.338200 0.571200 10.356100 -3.640600 10.930300 43.221401 26.608999 -27.613501 0.000000 0.000000 109.920799 1.545200 -1.245700 1.061700 1.443600 13.259100 -17.386299 0.440500 -4.290200 -8.003200 1.455200 -14.735200 16.051701 49.846100 -0.495200 -2.142600 58.338902 -1.185500 -1.369700 48.854599 -0.450100 0.383500 50.476299 -2.858200 -1.563400 63.872101 -1.404200 -1.269400 56.198002 -0.560400 -0.938400 68.674500 -3.592000 -1.584500 70.133698 -0.468900 -1.446900 54.086498 -0.008700 0.787400 63.209801 -6.027200 -5.699700 86.703201 -1.318700 -0.597100 53.548901 -0.990200 1.503800 -12.935700 4.201400 3.410900 47.119301 4.167800 3.170100 12.472800 -8.333200 -11.927800 -4.604100 0.000000 -0.000000 -52.223701 -5.805200 4.233200 55.177299 1.312600 -1.302300 -10.003600 -9.330400 2.467100 -6.318300 0.000000 -0.000000 
